<svg width="148" height="66" fill="none" xmlns="http://www.w3.org/2000/svg"><path fill="#E5E5E5" d="M0 0h148v66H0z"/><path fill="#fff" d="M-661-714H619v4452H-661z"/><g clip-path="url(#a)"><path fill="#F7EEE5" d="M-646-699H604v4422H-646z"/><path fill="#fff" d="M-646-100H601v602H-646z"/><g fill="#8A7B60"><path d="M5.391 55.254h12.58v-32.91c0-1.613.044-3.3.134-5.06l-7.413 6.134c-.479.388-.958.672-1.437.85-.48.15-.944.224-1.393.224-.779 0-1.483-.164-2.111-.492-.6-.358-1.049-.731-1.348-1.12L0 17.06 20.396 0h11.501v55.254H42.68v10.03H5.39v-10.03zM77.1 23.955c2.366 0 4.702.388 7.008 1.164a17.92 17.92 0 0 1 6.2 3.582c1.827 1.612 3.295 3.657 4.403 6.135 1.138 2.448 1.707 5.343 1.707 8.686 0 3.045-.569 5.94-1.707 8.687a21.697 21.697 0 0 1-4.852 7.164c-2.067 2.03-4.568 3.642-7.503 4.836C79.421 65.403 76.171 66 72.607 66c-3.654 0-6.933-.567-9.838-1.701-2.906-1.165-5.377-2.777-7.413-4.836-2.007-2.06-3.55-4.523-4.628-7.388-1.048-2.866-1.572-6.015-1.572-9.448 0-3.254.629-6.493 1.887-9.717 1.258-3.223 3.115-6.507 5.57-9.85L71.35 3.224c.66-.896 1.648-1.642 2.965-2.239 1.318-.627 2.816-.94 4.493-.94h12.4L71.799 23.149c-.3.329-.6.672-.899 1.03l-.809.985a19.639 19.639 0 0 1 3.28-.895 21.166 21.166 0 0 1 3.729-.314zM62.544 44.508c0 1.611.195 3.06.584 4.343.39 1.283.988 2.388 1.797 3.313.809.926 1.827 1.642 3.055 2.15 1.228.477 2.68.716 4.358.716 1.437 0 2.77-.269 3.998-.806 1.258-.537 2.336-1.269 3.235-2.194a10.62 10.62 0 0 0 2.111-3.314c.54-1.283.809-2.671.809-4.164 0-1.671-.255-3.164-.764-4.477-.479-1.314-1.168-2.418-2.066-3.314-.899-.895-1.992-1.582-3.28-2.06-1.258-.477-2.665-.716-4.223-.716-1.408 0-2.695.254-3.864.761a8.618 8.618 0 0 0-3.055 2.105c-.838.925-1.497 2.03-1.976 3.313-.48 1.284-.72 2.731-.72 4.343zM148 .045v5.82c0 1.642-.18 2.97-.539 3.986a31.416 31.416 0 0 1-1.033 2.597L123.56 60.716c-.599 1.284-1.482 2.374-2.65 3.27-1.168.865-2.711 1.298-4.628 1.298h-10.153l23.362-46.702a24.85 24.85 0 0 1 2.021-3.448 32.206 32.206 0 0 1 2.426-2.91h-28.797c-.42 0-.824-.075-1.213-.224a4.441 4.441 0 0 1-.989-.672 4.452 4.452 0 0 1-.674-.985 2.76 2.76 0 0 1-.269-1.164V.045H148z"/></g></g><defs><clipPath id="a"><path fill="#fff" transform="translate(-646 -699)" d="M0 0h1250v4422H0z"/></clipPath></defs></svg>