<svg width="163" height="73" fill="none" xmlns="http://www.w3.org/2000/svg"><path d="M4.8 65.358h15.581V16.24c0-1.475.05-2.966.152-4.475l-12.95 11.01c-.338.269-.675.47-1.012.604-.338.1-.658.15-.962.15-.505 0-.96-.1-1.365-.3-.405-.235-.709-.504-.911-.805L.5 18.552 22.05 0h7.336v65.358h14.266v6.838H4.8v-6.838zM81.854 28.054c2.9 0 5.65.486 8.246 1.458 2.597.938 4.873 2.33 6.83 4.173 1.956 1.81 3.507 4.055 4.654 6.736 1.146 2.648 1.72 5.682 1.72 9.1 0 3.319-.607 6.402-1.822 9.251a22.419 22.419 0 0 1-5.109 7.44c-2.158 2.112-4.772 3.772-7.841 4.978C85.462 72.397 82.09 73 78.414 73c-3.642 0-6.947-.57-9.915-1.71-2.934-1.172-5.447-2.815-7.538-4.926-2.09-2.145-3.71-4.726-4.856-7.743-1.113-3.05-1.67-6.452-1.67-10.206 0-3.15.708-6.502 2.125-10.055 1.416-3.553 3.66-7.373 6.728-11.463L81.652 2.313c.472-.604 1.13-1.106 1.973-1.509.843-.435 1.804-.653 2.883-.653h7.993L69.36 31.774c1.72-1.173 3.625-2.078 5.716-2.715 2.091-.67 4.35-1.005 6.78-1.005zm-18.718 21.92c0 2.313.338 4.424 1.012 6.335.675 1.91 1.653 3.552 2.934 4.927 1.316 1.374 2.9 2.446 4.756 3.217 1.888.737 4.03 1.106 6.424 1.106 2.429 0 4.62-.385 6.577-1.156 1.956-.771 3.625-1.844 5.008-3.218 1.417-1.374 2.496-3 3.238-4.877.775-1.876 1.163-3.92 1.163-6.133 0-2.346-.37-4.458-1.113-6.335-.742-1.91-1.787-3.52-3.136-4.826-1.35-1.34-2.968-2.363-4.857-3.067-1.888-.704-3.962-1.056-6.222-1.056-2.428 0-4.62.42-6.576 1.257-1.957.804-3.626 1.91-5.009 3.318a14.586 14.586 0 0 0-3.136 4.827 15.453 15.453 0 0 0-1.063 5.68zM162.5.15v4.023c0 1.14-.135 2.078-.405 2.815-.236.738-.489 1.358-.759 1.86l-29.998 60.18a6.942 6.942 0 0 1-1.822 2.263c-.775.603-1.821.905-3.136.905h-6.425l30.454-59.426c.439-.838.877-1.609 1.316-2.313.472-.704.995-1.374 1.568-2.01h-37.84c-.574 0-1.096-.219-1.569-.654-.438-.47-.657-.989-.657-1.559V.151H162.5z" fill="#fff"/></svg>